<svg width="106" height="39" viewBox="0 0 106 39" fill="none" xmlns="http://www.w3.org/2000/svg">
<path d="M74.5245 10.0521C72.0391 8.82658 69.0473 9.04889 66.7917 10.6393L66.4854 10.8445L66.1792 10.6393L66.0673 10.5652C64.8246 9.73293 63.3523 9.2769 61.8387 9.2655C57.7338 9.2712 54.4063 12.4919 54.4063 16.465V21.1791V21.2817C54.3062 24.719 51.3909 27.4666 47.8219 27.4552C44.2176 27.4438 41.2965 24.6278 41.267 21.1449V14.8119H47.3272V14.8005H47.3802C48.8761 14.7492 50.0717 13.5578 50.054 12.0986C50.054 11.386 49.7595 10.702 49.2354 10.2004C48.7112 9.70443 47.9986 9.43081 47.2624 9.43651C47.2035 9.43651 47.1388 9.43651 47.0857 9.44221H41.267V2.90396C41.2729 2.84126 41.2729 2.77856 41.2729 2.71585C41.2729 2.00902 40.9784 1.33068 40.4602 0.840453C39.936 0.344527 39.2293 0.0709121 38.499 0.0823127C37.0325 0.0937133 35.8429 1.22237 35.7781 2.62465V21.3387C35.8723 27.706 41.2258 32.8477 47.8337 32.8591C54.5005 32.8705 59.9246 27.649 59.9364 21.1905V16.3966C59.9482 15.7695 60.2957 15.1995 60.8552 14.8746C61.4323 14.544 62.1449 14.5326 62.728 14.8518C63.3169 15.1653 63.6762 15.7638 63.688 16.4137L63.6939 21.0708V21.1392C63.7351 22.5643 64.9247 23.7158 66.4089 23.7443C67.9166 23.7728 69.1651 22.627 69.224 21.1677V16.4137V16.3567C69.2711 15.3819 70.1074 14.6124 71.1204 14.6238C72.1687 14.6238 73.0168 15.4446 73.0168 16.4593V35.96L73.0227 36.2336V36.302C73.058 37.7499 74.283 38.9128 75.7907 38.9128C77.3219 38.9128 78.5587 37.7157 78.5587 36.2336V16.3624C78.5293 13.7003 76.9745 11.2663 74.5245 10.0521ZM104.619 15.7581C104.431 17.5537 102.87 18.9161 101.003 18.9047C100.65 18.9047 100.302 18.8534 99.9608 18.7565C101.209 21.658 100.084 25.0097 97.3105 26.64C94.5366 28.276 90.9441 27.7003 88.8593 25.2891C86.7744 22.8835 86.8156 19.355 88.9594 17.0008C91.109 14.6409 94.7133 14.1507 97.446 15.8437C97.3164 14.8518 97.6345 13.8542 98.3176 13.1018C99.0008 12.3494 99.9784 11.9161 101.009 11.9161C101.109 11.9161 101.209 11.9218 101.315 11.9275C96.433 8.27365 89.4894 8.76958 85.2137 13.0733C80.938 17.377 80.6965 24.1148 84.666 28.6921C88.6296 33.2695 95.5202 34.2214 100.644 30.8982C105.768 27.5749 107.482 21.048 104.619 15.7581ZM29.5471 9.02039C28.0159 9.02039 26.7791 10.2175 26.7791 11.6995V29.7296C26.7791 31.2117 28.0159 32.4087 29.5471 32.4087C31.0784 32.4087 32.3151 31.2117 32.3151 29.7296V11.6995C32.3151 10.2232 31.0725 9.02039 29.5471 9.02039ZM23.4339 16.7329L23.4575 16.7614C21.7731 12.2354 17.3031 9.02609 12.085 9.02039C5.41236 9.02609 0.0058894 14.259 0 20.7117V29.8151C0.0530046 31.2687 1.28978 32.4201 2.79158 32.403C4.29337 32.3916 5.50659 31.2174 5.53604 29.7752V20.7117V20.6091C5.58904 17.2516 8.3335 14.5098 11.8141 14.373C14.6352 14.259 17.1205 15.895 18.1335 18.3005V18.3062L18.1452 18.3233L18.1688 18.3746C18.1982 18.4487 18.2277 18.5285 18.2571 18.6083C18.8225 19.8396 20.2595 20.4894 21.62 20.079C23.0688 19.6287 23.8756 18.1352 23.4339 16.7329ZM31.4906 0.846153C30.9665 0.350227 30.2538 0.0766124 29.5177 0.0823127C27.9864 0.0937133 26.7614 1.30788 26.7732 2.78426C26.785 4.26634 28.0394 5.452 29.5648 5.4406C31.096 5.4292 32.321 4.21503 32.3092 2.73865C32.3151 2.02612 32.0207 1.34208 31.4906 0.846153Z" fill="black"/>
<path d="M100.997 17.873C102.406 17.873 103.547 16.7679 103.547 15.4048C103.547 14.0416 102.406 12.9365 100.997 12.9365C99.589 12.9365 98.4473 14.0416 98.4473 15.4048C98.4473 16.7679 99.589 17.873 100.997 17.873Z" fill="#2793FF"/>
</svg>
