<svg width="142" height="54" viewBox="0 0 142 54" fill="none" xmlns="http://www.w3.org/2000/svg">
<g clip-path="url(#clip0_456_110)">
<path d="M99.832 13.8676C96.4951 12.1571 92.4954 12.4671 89.4671 14.6826L89.0557 14.9696L88.6443 14.6826L88.4957 14.5793C86.8273 13.4199 84.8617 12.7885 82.8276 12.777C77.3309 12.7885 72.8741 17.2656 72.8627 22.7872V29.3421V29.4913C72.7256 34.2668 68.8173 38.0895 64.0406 38.0781C59.2181 38.0666 55.2984 34.152 55.2641 29.2962V20.4913H63.3892V20.4798H63.4577C65.4576 20.411 67.0575 18.7464 67.046 16.726C67.046 15.7388 66.6461 14.786 65.949 14.0857C65.2405 13.3969 64.292 13.0066 63.3092 13.0296C63.2292 13.0296 63.1492 13.0296 63.0692 13.0411H55.2755V3.92627C55.287 3.83444 55.287 3.75408 55.287 3.66224C55.287 2.68648 54.8984 1.73367 54.2014 1.05638C53.5043 0.3676 52.5558 -0.0112261 51.5844 0.000253482C49.6189 0.0232127 48.0304 1.58444 47.939 3.53597V29.5602C48.0647 38.411 55.2413 45.5627 64.0863 45.5857C73.0227 45.6087 80.2792 38.3421 80.3021 29.365V22.6954C80.325 21.823 80.7821 21.0309 81.5363 20.5832C82.3019 20.124 83.2619 20.1125 84.0504 20.5487C84.8389 20.9849 85.3188 21.8115 85.3303 22.7184L85.3417 29.1929V29.2847C85.3988 31.2707 86.9873 32.8663 88.9871 32.9122C91.0098 32.9467 92.6783 31.351 92.7582 29.3306V22.7184V22.638C92.8154 21.2834 93.9353 20.2043 95.3066 20.2273C96.7122 20.2273 97.8436 21.3753 97.855 22.7872V49.902L97.8664 50.2809V50.3727C97.9121 52.3816 99.5577 54.0002 101.569 54.0002C103.615 54.0002 105.272 52.3357 105.272 50.2809V22.638C105.203 18.9301 103.123 15.5551 99.832 13.8676ZM140.149 21.7885C139.897 24.2796 137.806 26.1737 135.303 26.1622C134.823 26.1622 134.366 26.0934 133.909 25.9556C135.589 29.9849 134.081 34.6457 130.355 36.9186C126.641 39.1916 121.83 38.388 119.03 35.036C116.231 31.6839 116.288 26.7821 119.168 23.5105C122.047 20.2273 126.87 19.55 130.538 21.9033C130.367 20.5258 130.789 19.1367 131.704 18.0921C132.618 17.0474 133.932 16.4505 135.315 16.439C135.452 16.439 135.589 16.4505 135.726 16.462C129.19 11.3765 119.887 12.0653 114.162 18.0576C108.426 24.0385 108.117 33.4059 113.431 39.7656C118.745 46.1252 127.967 47.4454 134.835 42.8306C141.691 38.2273 143.988 29.1469 140.149 21.7885ZM39.574 12.4326C37.5284 12.4326 35.8714 14.0972 35.8714 16.152V41.2235C35.8714 43.2783 37.5284 44.9429 39.574 44.9429C41.6195 44.9429 43.2765 43.2783 43.2765 41.2235V16.152C43.2879 14.0972 41.6309 12.4326 39.574 12.4326ZM31.3918 23.1546L31.4146 23.2005C29.1634 16.9097 23.1753 12.4441 16.1816 12.4326C7.24513 12.4326 0.0114277 19.7107 0 28.6877V41.3497C0.0685659 43.3701 1.72558 44.9658 3.73684 44.9543C5.74811 44.9314 7.38226 43.3127 7.41655 41.3038V28.6877V28.55C7.48511 23.8893 11.1648 20.0781 15.8273 19.8829C19.5984 19.7337 22.9353 22.0066 24.2952 25.3357V25.3472L24.3066 25.3587L24.3295 25.4275C24.3752 25.5309 24.4095 25.6457 24.4552 25.749C25.2094 27.4594 27.1407 28.3663 28.9577 27.7923C30.9004 27.1724 31.986 25.1061 31.3918 23.1546ZM42.1909 1.05638C41.4824 0.3676 40.5339 -0.0112261 39.5511 0.000253482C37.5056 0.0232127 35.86 1.69923 35.8714 3.75408C35.8943 5.80893 37.5627 7.46199 39.6082 7.45051C41.6538 7.42755 43.2994 5.75153 43.2879 3.69668C43.2879 2.70944 42.888 1.75663 42.1909 1.05638Z" fill="white"/>
<path d="M135.304 24.7388C137.191 24.7388 138.72 23.2021 138.72 21.3064C138.72 19.4108 137.191 17.874 135.304 17.874C133.417 17.874 131.887 19.4108 131.887 21.3064C131.887 23.2021 133.417 24.7388 135.304 24.7388Z" fill="#2793FF"/>
</g>
<defs>
<clipPath id="clip0_456_110">
<rect width="142" height="54" fill="white"/>
</clipPath>
</defs>
</svg>
